<?xml version="1.0" encoding="UTF-8"?>
<!DOCTYPE svg PUBLIC "-//W3C//DTD SVG 1.1//EN" "http://www.w3.org/Graphics/SVG/1.1/DTD/svg11.dtd">
<!-- Creator: CorelDRAW 2019 (64-Bit) -->
<svg xmlns="http://www.w3.org/2000/svg" xml:space="preserve" width="46px" height="46px" version="1.1" style="shape-rendering:geometricPrecision; text-rendering:geometricPrecision; image-rendering:optimizeQuality; fill-rule:evenodd; clip-rule:evenodd"
viewBox="0 0 24.84 24.86"
 xmlns:xlink="http://www.w3.org/1999/xlink"
 xmlns:xodm="http://www.corel.com/coreldraw/odm/2003">
 <defs>
  <style type="text/css">
   <![CDATA[
    .fil0 {fill:#444;fill-rule:nonzero}
   ]]>
  </style>
 </defs>
 <g id="Слой_x0020_1">
  <metadata id="CorelCorpID_0Corel-Layer"/>
  <g>
   <path class="fil0" d="M5.12 0.65c-0.79,-0.66 -1.91,-0.74 -2.89,-0.58 -0.9,0.18 -1.61,0.93 -1.82,1.81 0,1.06 -0.25,2.29 0.55,3.15 -0.67,0.66 -1.06,1.6 -0.94,2.54 0.08,0.59 0.22,1.18 0.3,1.77 0.05,0.25 0.08,0.5 0.13,0.75 0.19,1.23 0.47,2.45 0.65,3.68 0.05,0.25 0.08,0.51 0.13,0.76 0.2,1.21 0.46,2.41 0.65,3.63 0.07,0.44 0.25,0.86 0.47,1.25 -0.11,0.8 0.18,1.62 0.78,2.17 -0.11,0.85 0.16,1.76 0.76,2.38 0.53,0.58 1.32,0.89 2.1,0.89 3.73,0.01 7.46,0 11.19,0 0.88,0.01 1.78,-0.31 2.4,-0.94 0.5,-0.48 0.82,-1.13 0.97,-1.81 0.03,-0.41 0.03,-0.82 -0.02,-1.23 -0.3,-1.25 -1.32,-2.27 -2.57,-2.57 -1.4,-0.09 -2.8,-0.02 -4.2,-0.05 -0.74,0.03 -1.49,-0.05 -2.22,0.07 -1.11,0.13 -2.21,0.32 -3.32,0.48 0.31,-0.88 0.18,-1.82 -0.01,-2.71 -0.23,-1.3 -0.4,-2.62 -0.77,-3.9 -0.03,-0.11 -0.06,-0.22 -0.1,-0.33 -0.62,-1.87 -1.21,-3.75 -1.81,-5.62 -0.11,-0.35 -0.4,-0.62 -0.51,-0.96 0.47,-0.38 0.86,-0.86 1.03,-1.45 0.4,-1.11 0.01,-2.45 -0.93,-3.18l0 0zm-1.18 1.08c0.59,0.28 0.87,1.05 0.63,1.66 -0.2,0.55 -0.77,0.94 -1.36,0.89 -0.45,0.04 -1.06,0.02 -1.23,-0.5 -0.09,-0.56 -0.02,-1.13 -0.03,-1.69 0.17,-0.24 0.37,-0.51 0.7,-0.52 0.43,-0.01 0.89,-0.06 1.29,0.16l0 0zm0.19 5.22c0.63,2.05 1.33,4.08 1.95,6.14 0.19,0.81 0.33,1.63 0.45,2.45 0.04,0.19 0.07,0.38 0.11,0.57 0.12,0.79 0.39,1.63 0.03,2.4 -0.03,-0.02 -0.08,-0.05 -0.11,-0.06 -0.35,-0.44 -0.82,-0.77 -1.36,-0.93 -0.33,-0.04 -0.67,-0.05 -1.01,-0.03 -0.27,0.1 -0.53,0.21 -0.79,0.34 -0.2,-1.2 -0.44,-2.4 -0.65,-3.6 -0.25,-1.68 -0.6,-3.34 -0.87,-5.01 -0.08,-0.59 -0.22,-1.18 -0.31,-1.76 -0.09,-0.53 0.17,-1.1 0.61,-1.39 0.31,-0.21 0.7,-0.18 1.05,-0.12 0.44,0.16 0.77,0.55 0.9,1l0 0zm0.78 12.09c0.25,0.17 0.51,0.39 0.52,0.72 0.04,0.37 -0.24,0.64 -0.52,0.82 -0.17,0 -0.34,0 -0.51,0 -0.27,-0.18 -0.56,-0.46 -0.52,-0.82 0.01,-0.33 0.28,-0.55 0.52,-0.72 0.17,0 0.34,0 0.51,0l0 0zm7.89 -18.5c-0.17,-0.25 -0.39,-0.52 -0.71,-0.53 -0.36,-0.04 -0.63,0.24 -0.85,0.47 -0.57,0.59 -1.17,1.14 -1.72,1.74 -0.27,0.27 -0.27,0.74 0,1.02 0.54,0.57 1.12,1.11 1.66,1.68 0.25,0.24 0.52,0.56 0.9,0.52 0.33,0 0.55,-0.27 0.72,-0.52 0,-0.17 0.01,-0.34 0.01,-0.51 -0.25,-0.32 -0.53,-0.6 -0.8,-0.9 0.44,-0.01 0.88,-0.01 1.31,0.03 1.42,0.16 2.82,0.64 4.01,1.44 2.23,1.44 3.71,3.92 3.99,6.55 0.03,0.46 0.03,0.91 0.02,1.37 -0.27,-0.31 -0.56,-0.61 -0.9,-0.85 -0.17,0 -0.34,0 -0.51,0 -0.25,0.17 -0.51,0.39 -0.52,0.72 -0.04,0.38 0.28,0.66 0.53,0.9 0.56,0.55 1.1,1.13 1.68,1.67 0.27,0.26 0.75,0.26 1.02,-0.01 0.6,-0.55 1.14,-1.15 1.73,-1.71 0.23,-0.23 0.51,-0.5 0.47,-0.85 -0.01,-0.33 -0.27,-0.55 -0.52,-0.72 -0.17,0 -0.34,0 -0.51,0 -0.33,0.24 -0.61,0.54 -0.9,0.83 0.08,-2.34 -0.61,-4.7 -2,-6.59 -1.31,-1.82 -3.21,-3.2 -5.35,-3.86 -1.16,-0.39 -2.39,-0.5 -3.6,-0.49 0.3,-0.28 0.6,-0.57 0.84,-0.9 0,-0.17 0,-0.34 0,-0.5zm4.86 19.28c0.94,0.25 1.62,1.29 1.29,2.25 -0.23,0.74 -0.99,1.26 -1.76,1.23 -3.66,0 -7.32,0 -10.98,0 -0.4,0.02 -0.82,-0.05 -1.11,-0.33 -0.25,-0.21 -0.35,-0.52 -0.46,-0.81 0.19,-0.02 0.38,-0.04 0.56,-0.06 0.75,-0.22 1.4,-0.77 1.65,-1.52 1.34,-0.21 2.69,-0.41 4.03,-0.61 0.29,-0.04 0.58,-0.06 0.87,-0.13 0.52,-0.05 1.04,-0.03 1.56,-0.03 1.45,0.01 2.9,-0.02 4.35,0.01z"/>
  </g>
 </g>
</svg>
