<?xml version="1.0" encoding="UTF-8"?>
<!DOCTYPE svg PUBLIC "-//W3C//DTD SVG 1.1//EN" "http://www.w3.org/Graphics/SVG/1.1/DTD/svg11.dtd">
<!-- Creator: CorelDRAW 2019 (64-Bit) -->
<svg xmlns="http://www.w3.org/2000/svg" xml:space="preserve" width="46px" height="46px" version="1.1" style="shape-rendering:geometricPrecision; text-rendering:geometricPrecision; image-rendering:optimizeQuality; fill-rule:evenodd; clip-rule:evenodd"
viewBox="0 0 96.47 96.46"
 xmlns:xlink="http://www.w3.org/1999/xlink"
 xmlns:xodm="http://www.corel.com/coreldraw/odm/2003">
 <defs>
  <style type="text/css">
   <![CDATA[
    .fil0 {fill:#444}
   ]]>
  </style>
 </defs>
 <g id="Слой_x0020_1">
  <metadata id="CorelCorpID_0Corel-Layer"/>
  <path class="fil0" d="M31.52 10.43c11.1,-1.04 22.33,-1.04 33.43,0 1.19,0.09 2.38,0.14 3.56,0.27 2.55,0.37 5.15,0.55 7.7,1.01 1.21,0.31 2.52,-0.14 3.25,-1.16 1.75,-2.3 4.2,-4.15 7.06,-4.79 1.18,-0.26 2.58,-0.18 3.48,0.7 0.96,1.01 0.97,2.54 0.64,3.81 -0.71,2.61 -2.36,4.91 -4.5,6.54 -1.05,0.75 -1.84,2.1 -1.32,3.4 1.79,4.47 3.44,9.03 4.4,13.77 0.96,4.98 1.71,10.03 1.6,15.11 -0.03,4.52 -0.78,8.98 -1.62,13.41 -0.95,4.73 -2.6,9.3 -4.39,13.77 -0.45,1.17 0.13,2.49 1.1,3.19 2.63,2.01 4.83,5.02 4.92,8.43 0.07,1.61 -1.34,3.01 -2.95,2.94 -3.4,-0.09 -6.4,-2.29 -8.4,-4.9 -0.72,-1.03 -2.02,-1.48 -3.23,-1.18 -3.99,0.67 -8.04,0.98 -12.05,1.44 -10.49,0.79 -21.04,0.83 -31.54,0.02 -1.66,-0.4 -3.4,-0.12 -5.05,-0.59 -2.78,-0.08 -5.51,-0.69 -8.27,-0.95 -1.8,-0.04 -2.62,1.79 -3.76,2.86 -1.87,1.81 -4.34,3.26 -7.01,3.3 -1.6,0.05 -3,-1.34 -2.94,-2.95 0.08,-2.97 1.81,-5.71 4,-7.63 1.23,-0.92 2.7,-2.3 2.01,-4 -1.78,-4.47 -3.43,-9.02 -4.39,-13.75 -0.93,-4.85 -1.69,-9.76 -1.61,-14.7 0,-4.66 0.76,-9.27 1.62,-13.84 0.95,-4.73 2.6,-9.28 4.39,-13.75 0.46,-1.19 -0.13,-2.52 -1.12,-3.23 -2.51,-1.92 -4.57,-4.72 -4.89,-7.94 -0.21,-1.57 0.86,-3.26 2.52,-3.37 2.81,-0.19 5.46,1.4 7.43,3.27 1.14,1.07 1.94,2.92 3.75,2.85 2.63,-0.25 5.22,-0.81 7.87,-0.96 1.42,-0.3 2.87,-0.28 4.31,-0.4zm29.7 30.25c-2.16,-1.26 -5,-1.16 -7.2,-0.04 -2.13,-2.15 -4.26,-4.31 -6.43,-6.42 -1.13,-1.16 -3.15,-0.99 -4.13,0.26 -0.85,0.98 -0.7,2.41 -0.1,3.47 2.22,2.11 4.28,4.37 6.55,6.43 -0.13,0.56 -0.27,1.12 -0.48,1.66 -0.26,1.44 -0.26,2.93 0.02,4.37 0.2,0.55 0.33,1.11 0.45,1.68 -2.15,1.99 -4.2,4.11 -6.25,6.2 -1.43,1.33 -0.8,4.06 1.1,4.57 1.31,0.54 2.66,-0.27 3.51,-1.24 1.92,-1.95 3.87,-3.88 5.8,-5.82 2.17,1.19 5.01,1.22 7.16,-0.01 2.11,2.09 4.21,4.2 6.31,6.3 0.83,0.92 2.26,1.21 3.37,0.63 1.63,-0.7 2.11,-3.13 0.82,-4.37 -2.12,-2.21 -4.35,-4.31 -6.47,-6.52 1.13,-2.23 1.17,-4.97 0,-7.19 1.78,-1.83 3.6,-3.63 5.41,-5.43 0.71,-0.76 1.62,-1.46 1.78,-2.56 0.26,-1.59 -1.04,-3.17 -2.65,-3.2 -1.33,-0.13 -2.27,0.94 -3.13,1.78 -1.79,1.84 -3.64,3.62 -5.44,5.45zm-4.73 5c2.05,-1.09 4.69,1.22 3.85,3.39 -0.53,1.91 -3.26,2.66 -4.62,1.17 -1.46,-1.25 -0.98,-3.84 0.77,-4.56zm-28.13 0.02c-0.23,-8.33 -2.33,-16.54 -5.43,-24.25 -0.38,-0.89 -0.92,-1.71 -1.73,-2.26 -0.8,-0.03 -1.62,-0.18 -2.39,0.07 -1.24,0.57 -1.65,1.94 -2.18,3.08 -0.02,0.13 -0.08,0.38 -0.1,0.51 -1.37,3.32 -2.47,6.75 -3.26,10.25 -0.95,4.84 -1.83,9.74 -1.8,14.69 -0.12,5.25 0.76,10.45 1.83,15.57 0.76,3.83 2.14,7.5 3.52,11.14 0.37,0.87 0.71,1.83 1.5,2.42 0.78,0.7 1.92,0.36 2.87,0.36 0.69,-0.5 1.27,-1.13 1.57,-1.93 1.23,-2.93 2.35,-5.91 3.13,-8.99 1.24,-4.83 2.32,-9.74 2.46,-14.75 0.31,-1.95 0.26,-3.96 0.01,-5.91zm-9 -13.42c0.14,-0.58 0.28,-1.15 0.41,-1.73 0.69,0.37 0.62,1.24 0.87,1.88 0.76,2.94 1.5,5.92 1.68,8.97 0.48,2.1 0.31,4.28 0.4,6.41 -0.06,2.43 0.07,4.88 -0.38,7.27 -0.32,3.56 -1.13,7.06 -2.15,10.47l-0.42 0.36c-0.13,-0.57 -0.27,-1.15 -0.41,-1.72 -1.67,-6.58 -2.76,-13.43 -2.03,-20.22 0.19,-3.97 1.09,-7.85 2.03,-11.69zm17.3 -27.91c-2,0.2 -4.03,0.05 -6.01,0.44 -3.38,0.21 -6.73,0.64 -10.07,1.15 -2.66,-2.94 -6.19,-5.23 -10.16,-5.82 -2.82,-0.48 -5.9,0.28 -7.98,2.3 -2.02,2.05 -2.78,5.14 -2.3,7.95 0.56,3.78 2.65,7.16 5.37,9.78 -3.61,9.34 -5.64,19.33 -5.48,29.37 0.05,4.04 0.63,8.05 1.24,12.04 0.91,5.05 2.52,9.92 4.23,14.73 -2.62,2.52 -4.65,5.74 -5.29,9.36 -0.61,2.92 0.12,6.18 2.21,8.35 2.41,2.33 6.1,2.94 9.26,2.06 3.5,-0.83 6.52,-2.97 8.92,-5.58 3.33,0.53 6.69,0.93 10.05,1.15 2.24,0.43 4.54,0.2 6.78,0.6 7.45,0.16 14.95,0.42 22.38,-0.16 5.39,-0.23 10.76,-0.78 16.09,-1.58 2.24,2.47 5.06,4.5 8.3,5.41 2.84,0.9 6.11,0.73 8.64,-0.94 2.75,-1.77 3.95,-5.3 3.55,-8.46 -0.46,-3.94 -2.61,-7.51 -5.44,-10.23 1.8,-4.9 3.43,-9.91 4.28,-15.07 0.61,-3.73 1.11,-7.48 1.2,-11.26 0.24,-10.18 -1.84,-20.31 -5.47,-29.8 2.62,-2.52 4.66,-5.75 5.3,-9.37 0.6,-2.92 -0.13,-6.17 -2.22,-8.35 -2.18,-2.1 -5.44,-2.84 -8.37,-2.23 -3.82,0.68 -7.2,2.89 -9.77,5.74 -3.34,-0.48 -6.69,-0.93 -10.07,-1.15 -1.84,-0.36 -3.73,-0.23 -5.59,-0.41 -0.54,-0.16 -1.1,-0.23 -1.66,-0.22 -7.31,-0.08 -14.64,-0.39 -21.92,0.2z"/>
 </g>
</svg>
