<?xml version="1.0" encoding="UTF-8"?>
<!DOCTYPE svg PUBLIC "-//W3C//DTD SVG 1.1//EN" "http://www.w3.org/Graphics/SVG/1.1/DTD/svg11.dtd">
<!-- Creator: CorelDRAW 2019 (64-Bit) -->
<svg xmlns="http://www.w3.org/2000/svg" xml:space="preserve" width="46px" height="46px" version="1.1" style="shape-rendering:geometricPrecision; text-rendering:geometricPrecision; image-rendering:optimizeQuality; fill-rule:evenodd; clip-rule:evenodd"
viewBox="0 0 44.99 44.99"
 xmlns:xlink="http://www.w3.org/1999/xlink"
 xmlns:xodm="http://www.corel.com/coreldraw/odm/2003">
 <defs>
  <style type="text/css">
   <![CDATA[
    .fil0 {fill:#444;fill-rule:nonzero}
   ]]>
  </style>
 </defs>
 <g id="Слой_x0020_1">
  <metadata id="CorelCorpID_0Corel-Layer"/>
  <g>
   <path class="fil0" d="M8.99 11.4c1.35,-0.39 2.79,0.29 3.62,1.37 0.84,-1.1 2.33,-1.77 3.71,-1.35 0.8,0.19 1.42,0.74 1.94,1.35 0.73,-0.91 1.86,-1.57 3.05,-1.46 1.05,0.05 1.96,0.67 2.6,1.46 0.64,-0.8 1.55,-1.42 2.59,-1.46 1.2,-0.1 2.34,0.54 3.06,1.46 0.67,-0.84 1.66,-1.47 2.77,-1.47 1.14,-0.04 2.19,0.59 2.88,1.48 0.85,-1.14 2.38,-1.8 3.77,-1.33 1.78,0.53 2.72,2.39 3.11,4.09 0.79,0.06 1.68,-0.2 2.39,0.26 0.69,0.51 0.66,1.65 -0.06,2.12 -0.68,0.41 -1.51,0.19 -2.25,0.24 0,6.19 0,12.37 0,18.56 0.84,0.06 1.95,-0.27 2.55,0.53 0.6,0.69 0.14,1.89 -0.75,2.05 -0.69,0.09 -1.4,0.03 -2.1,0.04 -0.11,0.27 -0.21,0.55 -0.32,0.83 -0.67,1.3 -1.86,2.64 -3.46,2.56 -1.15,0.11 -2.17,-0.58 -2.85,-1.44 -0.74,0.82 -1.72,1.57 -2.89,1.44 -1.14,0.09 -2.1,-0.63 -2.79,-1.46 -0.68,0.86 -1.69,1.56 -2.84,1.46 -1.14,0.11 -2.12,-0.62 -2.8,-1.46 -0.69,0.84 -1.68,1.55 -2.82,1.46 -1.14,0.09 -2.17,-0.58 -2.84,-1.46 -0.68,0.83 -1.65,1.55 -2.79,1.46 -1.16,0.11 -2.15,-0.63 -2.89,-1.45 -0.65,0.88 -1.64,1.44 -2.73,1.54 -1.97,-0.06 -3.33,-1.75 -3.93,-3.48 -1.1,0 -2.2,0 -3.29,0 -0.03,1.48 0.06,2.97 -0.03,4.45 -0.01,0.75 -0.82,1.34 -1.54,1.17 -0.61,-0.12 -1.08,-0.72 -1.05,-1.35 -0.01,-1.82 -0.01,-3.64 0,-5.47 -0.08,-0.76 0.61,-1.47 1.38,-1.42 1.42,-0.01 2.84,0 4.26,0 0,-6.19 0,-12.38 0,-18.56 -1.47,-0.01 -2.93,0.03 -4.4,-0.01 -0.48,-0.02 -0.92,-0.32 -1.12,-0.76 -0.33,-0.62 0.01,-1.48 0.66,-1.73 0.31,-0.15 0.67,-0.12 1.01,-0.13 1.3,0.01 2.61,0 3.92,0 0.4,-1.74 1.41,-3.65 3.27,-4.13l0 0zm28.86 2.55c-1.06,0.59 -1.38,1.98 -1.33,3.12 0,6.76 0,13.52 0,20.28 -0.03,0.88 0.3,1.73 0.85,2.4 0.21,0.36 0.65,0.43 1.02,0.28 0.74,-0.67 1.19,-1.66 1.15,-2.67 0.01,-6.9 0,-13.8 0,-20.7 0.02,-0.85 -0.28,-1.69 -0.85,-2.32 -0.2,-0.24 -0.5,-0.51 -0.84,-0.39l0 0zm-29.57 2.72c0.01,6.96 -0.01,13.93 0.01,20.89 -0.03,0.98 0.53,1.83 1.14,2.54 0.31,-0.05 0.69,0.07 0.9,-0.22 0.64,-0.67 1,-1.6 0.97,-2.52 0,-6.9 0,-13.79 0,-20.69 0.01,-0.72 -0.2,-1.45 -0.61,-2.05 -0.23,-0.36 -0.56,-0.78 -1.05,-0.7 -0.93,0.55 -1.37,1.7 -1.36,2.75l0 0zm5.64 0.01c0.01,6.96 0,13.92 0.01,20.87 -0.01,0.97 0.52,1.83 1.13,2.54 0.24,-0.01 0.48,-0.01 0.71,-0.04 0.79,-0.65 1.2,-1.69 1.18,-2.7 0,-6.89 0,-13.78 0,-20.67 0.02,-0.79 -0.24,-1.57 -0.71,-2.2 -0.22,-0.32 -0.55,-0.64 -0.98,-0.55 -0.91,0.57 -1.34,1.71 -1.34,2.75l0 0zm6.66 -2.52c-0.67,0.65 -1.03,1.59 -1,2.52 -0.01,6.89 0,13.79 -0.01,20.68 -0.02,0.88 0.3,1.77 0.9,2.42 0.21,0.31 0.59,0.38 0.93,0.27 0.79,-0.64 1.21,-1.69 1.2,-2.7 0,-6.89 0,-13.78 0,-20.67 0.02,-0.93 -0.35,-1.86 -1,-2.52 -0.25,-0.32 -0.77,-0.32 -1.02,0l0 0zm4.64 2.51c0.01,6.56 0,13.12 0,19.68 0.01,0.82 -0.08,1.68 0.28,2.45 0.29,0.66 0.76,1.49 1.62,1.29 0.66,-0.76 1.19,-1.7 1.13,-2.74 -0.01,-6.89 0.01,-13.79 -0.01,-20.68 0.02,-0.84 -0.27,-1.68 -0.81,-2.32 -0.24,-0.33 -0.72,-0.61 -1.08,-0.3 -0.76,0.64 -1.14,1.65 -1.13,2.62l0 0zm-10.37 -16.52c0.77,-0.44 1.83,0.17 1.89,1.04 0.1,0.63 -0.52,1.04 -0.59,1.62 0.19,0.42 0.53,0.74 0.77,1.12 0.8,1.29 0.47,3.11 -0.68,4.08 -0.73,0.58 -1.98,0.13 -2.1,-0.82 -0.14,-0.62 0.34,-1.1 0.65,-1.58 -0.34,-0.68 -0.94,-1.23 -1.15,-1.98 -0.35,-1.25 0.08,-2.77 1.21,-3.48zm16.98 14.03c-0.63,0.66 -0.98,1.58 -0.96,2.49 0,6.9 0,13.79 0,20.69 -0.01,0.92 0.33,1.86 0.98,2.52 0.21,0.29 0.6,0.17 0.9,0.21 0.62,-0.71 1.16,-1.56 1.14,-2.54 0.01,-6.96 0,-13.92 0.01,-20.89 0.01,-0.99 -0.4,-2.02 -1.19,-2.63 -0.26,-0.22 -0.67,-0.09 -0.88,0.15zm-0.01 -14.04c0.78,-0.43 1.82,0.19 1.87,1.07 0.07,0.59 -0.45,1.01 -0.61,1.54 0.13,0.44 0.55,0.75 0.77,1.16 0.81,1.32 0.49,3.26 -0.8,4.18 -0.72,0.45 -1.81,0.01 -1.95,-0.85 -0.23,-0.7 0.52,-1.18 0.55,-1.82 -0.35,-0.58 -0.86,-1.06 -1.04,-1.72 -0.44,-1.28 0.07,-2.84 1.21,-3.56zm-8.68 0.12c0.69,-0.56 1.85,-0.14 2.04,0.73 0.19,0.59 -0.22,1.11 -0.54,1.56 0,0.09 -0.02,0.26 -0.02,0.35 0.38,0.49 0.82,0.96 1.02,1.56 0.46,1.24 0.06,2.74 -0.97,3.57 -0.72,0.52 -1.87,0.13 -2.04,-0.77 -0.24,-0.7 0.48,-1.17 0.56,-1.79 -0.24,-0.51 -0.69,-0.89 -0.92,-1.42 -0.6,-1.26 -0.22,-2.91 0.87,-3.79z"/>
  </g>
 </g>
</svg>
