<?xml version="1.0" encoding="UTF-8"?>
<!DOCTYPE svg PUBLIC "-//W3C//DTD SVG 1.1//EN" "http://www.w3.org/Graphics/SVG/1.1/DTD/svg11.dtd">
<!-- Creator: CorelDRAW 2019 (64-Bit) -->
<svg xmlns="http://www.w3.org/2000/svg" xml:space="preserve" width="46px" height="46px" version="1.1" style="shape-rendering:geometricPrecision; text-rendering:geometricPrecision; image-rendering:optimizeQuality; fill-rule:evenodd; clip-rule:evenodd"
viewBox="0 0 45.86 45.86"
 xmlns:xlink="http://www.w3.org/1999/xlink"
 xmlns:xodm="http://www.corel.com/coreldraw/odm/2003">
 <defs>
  <style type="text/css">
   <![CDATA[
    .fil0 {fill:none}
    .fil1 {fill:#444;fill-rule:nonzero}
   ]]>
  </style>
 </defs>
 <g id="Слой_x0020_1">
  <metadata id="CorelCorpID_0Corel-Layer"/>
  <rect class="fil0" width="45.86" height="45.86"/>
  <path class="fil1" d="M40.08 5.43l-34.3 0c-3.19,0 -5.78,2.59 -5.78,5.78l0 13c0,3.18 2.59,5.78 5.78,5.78l34.3 0c3.19,0 5.78,-2.6 5.78,-5.78l0 -13c0,-3.19 -2.59,-5.78 -5.78,-5.78zm-21.37 25.92c-0.75,0 -1.35,0.61 -1.35,1.36l0 2.73c0,1.26 -1.03,2.28 -2.28,2.28 -0.75,0 -1.36,0.6 -1.36,1.35 0,0.75 0.61,1.36 1.36,1.36 2.75,0 4.98,-2.24 4.98,-4.99l0 -2.73c0,-0.75 -0.6,-1.36 -1.35,-1.36zm12.07 6.37c-1.25,0 -2.28,-1.02 -2.28,-2.28l0 -2.73c0,-0.75 -0.6,-1.36 -1.35,-1.36 -0.75,0 -1.36,0.61 -1.36,1.36l0 2.73c0,2.75 2.24,4.99 4.99,4.99 0.75,0 1.36,-0.61 1.36,-1.36 0,-0.75 -0.61,-1.35 -1.36,-1.35zm-7.85 -6.37c-0.75,0 -1.36,0.61 -1.36,1.36l0 6.36c0,0.75 0.61,1.36 1.36,1.36 0.75,0 1.35,-0.61 1.35,-1.36l0 -6.36c0,-0.75 -0.6,-1.36 -1.35,-1.36zm9.03 -20.77l-1.73 0c-0.75,0 -1.36,0.6 -1.36,1.35 0,0.75 0.61,1.35 1.36,1.35l1.73 0c0.74,0 1.35,-0.6 1.35,-1.35 0,-0.75 -0.61,-1.35 -1.35,-1.35zm6.5 0l-1.73 0c-0.75,0 -1.36,0.6 -1.36,1.35 0,0.75 0.61,1.35 1.36,1.35l1.73 0c0.74,0 1.35,-0.6 1.35,-1.35 0,-0.75 -0.61,-1.35 -1.35,-1.35zm-2.8 16.7l-25.46 0 0 -0.41c0,-1.67 1.36,-3.02 3.02,-3.02l19.41 0c1.67,0 3.03,1.35 3.03,3.02l0 0.41 0 0zm7.49 -3.07c0,1.69 -1.38,3.07 -3.07,3.07l-1.71 0 0 -0.41c0,-3.16 -2.58,-5.73 -5.74,-5.73l-19.41 0c-3.16,0 -5.73,2.57 -5.73,5.73l0 0.41 -1.71 0c-1.7,0 -3.07,-1.38 -3.07,-3.07l0 -13c0,-1.69 1.37,-3.07 3.07,-3.07l34.3 0c1.69,0 3.07,1.38 3.07,3.07l0 13z"/>
 </g>
</svg>
