<?xml version="1.0" encoding="UTF-8"?>
<!DOCTYPE svg PUBLIC "-//W3C//DTD SVG 1.1//EN" "http://www.w3.org/Graphics/SVG/1.1/DTD/svg11.dtd">
<!-- Creator: CorelDRAW 2019 (64-Bit) -->
<svg xmlns="http://www.w3.org/2000/svg" xml:space="preserve" width="46px" height="46px" version="1.1" style="shape-rendering:geometricPrecision; text-rendering:geometricPrecision; image-rendering:optimizeQuality; fill-rule:evenodd; clip-rule:evenodd"
viewBox="0 0 45.86 45.86"
 xmlns:xlink="http://www.w3.org/1999/xlink"
 xmlns:xodm="http://www.corel.com/coreldraw/odm/2003">
 <defs>
  <style type="text/css">
   <![CDATA[
    .fil0 {fill:none}
    .fil1 {fill:#444;fill-rule:nonzero}
   ]]>
  </style>
 </defs>
 <g id="Слой_x0020_1">
  <metadata id="CorelCorpID_0Corel-Layer"/>
  <rect class="fil0" width="45.86" height="45.86"/>
  <path class="fil1" d="M42.72 2.25l-39.59 0c-1.72,0 -3.13,1.41 -3.13,3.14l0 25.08c0,1.73 1.41,3.13 3.13,3.13l13.24 0 0 3.59 -10.9 3.8c-0.7,0.24 -1.07,1.01 -0.83,1.71 0.25,0.7 1.01,1.07 1.71,0.83l14.66 -5.11c1.24,-0.43 2.6,-0.43 3.83,0l14.66 5.11c0.15,0.05 0.3,0.07 0.45,0.07 0.55,0 1.07,-0.34 1.27,-0.9 0.24,-0.7 -0.13,-1.47 -0.83,-1.71l-10.9 -3.8 0 -3.59 13.23 0c1.73,0 3.14,-1.4 3.14,-3.13l0 -25.08c0,-1.73 -1.41,-3.14 -3.14,-3.14l0 0zm-28.04 6.35l-8.23 8.23c-0.52,0.52 -0.52,1.38 0,1.9 0.27,0.26 0.61,0.39 0.95,0.39 0.35,0 0.69,-0.13 0.95,-0.39l8.23 -8.23c0.52,-0.52 0.52,-1.37 0,-1.9 -0.53,-0.52 -1.38,-0.52 -1.9,0l0 0zm-7.37 4.01l3.15 -3.15c0.52,-0.52 0.52,-1.38 0,-1.9 -0.53,-0.52 -1.38,-0.52 -1.9,0l-3.15 3.15c-0.53,0.52 -0.53,1.37 0,1.9 0.26,0.26 0.61,0.39 0.95,0.39 0.34,0 0.69,-0.13 0.95,-0.39zm19.49 23.65l-1.07 -0.38c-1.81,-0.62 -3.8,-0.62 -5.6,0l-1.07 0.38 0 -2.66 7.74 0 0 2.66zm16.37 -5.79c0,0.24 -0.2,0.45 -0.45,0.45l-39.59 0c-0.24,0 -0.44,-0.21 -0.44,-0.45l0 -25.08c0,-0.25 0.2,-0.45 0.44,-0.45l39.59 0c0.25,0 0.45,0.2 0.45,0.45l0 25.08z"/>
 </g>
</svg>
