<?xml version="1.0" encoding="UTF-8"?>
<!DOCTYPE svg PUBLIC "-//W3C//DTD SVG 1.1//EN" "http://www.w3.org/Graphics/SVG/1.1/DTD/svg11.dtd">
<!-- Creator: CorelDRAW 2019 (64-Bit) -->
<svg xmlns="http://www.w3.org/2000/svg" xml:space="preserve" width="46px" height="46px" version="1.1" style="shape-rendering:geometricPrecision; text-rendering:geometricPrecision; image-rendering:optimizeQuality; fill-rule:evenodd; clip-rule:evenodd"
viewBox="0 0 45.86 45.86"
 xmlns:xlink="http://www.w3.org/1999/xlink"
 xmlns:xodm="http://www.corel.com/coreldraw/odm/2003">
 <defs>
  <style type="text/css">
   <![CDATA[
    .fil0 {fill:none}
    .fil1 {fill:#444;fill-rule:nonzero}
   ]]>
  </style>
 </defs>
 <g id="Слой_x0020_1">
  <metadata id="CorelCorpID_0Corel-Layer"/>
  <rect class="fil0" width="45.86" height="45.86"/>
  <path class="fil1" d="M10.33 36.44c-4.86,-3.87 -7.64,-9.65 -7.64,-15.86 0,-6.21 2.78,-11.99 7.64,-15.86 0.58,-0.46 0.68,-1.3 0.21,-1.88 -0.46,-0.59 -1.3,-0.68 -1.88,-0.22 -5.5,4.39 -8.66,10.93 -8.66,17.96 0,7.03 3.16,13.58 8.66,17.96 0.58,0.47 1.42,0.37 1.89,-0.21 0.46,-0.58 0.36,-1.43 -0.22,-1.89zm12.6 -22.56c-3.71,0 -6.72,3.02 -6.72,6.72 0,3.24 2.31,5.96 5.38,6.58l0 15.01c0,0.74 0.6,1.34 1.34,1.34 0.74,0 1.34,-0.6 1.34,-1.34l0 -15.01c3.06,-0.62 5.38,-3.34 5.38,-6.58 0,-3.7 -3.02,-6.72 -6.72,-6.72zm0 10.75c-2.22,0 -4.03,-1.81 -4.03,-4.03 0,-2.22 1.81,-4.03 4.03,-4.03 2.22,0 4.03,1.81 4.03,4.03 0,2.22 -1.81,4.03 -4.03,4.03zm9.79 -16.4c-0.58,-0.46 -1.42,-0.37 -1.89,0.21 -0.46,0.58 -0.36,1.43 0.22,1.89 3.15,2.51 4.96,6.24 4.96,10.25 0,4.01 -1.81,7.75 -4.96,10.25 -0.58,0.47 -0.68,1.31 -0.22,1.89 0.47,0.58 1.31,0.68 1.89,0.22 3.8,-3.02 5.97,-7.52 5.97,-12.36 0,-4.83 -2.17,-9.33 -5.97,-12.35zm-17.91 22.6c-3.15,-2.5 -4.96,-6.24 -4.96,-10.25 0,-4.01 1.81,-7.74 4.96,-10.25 0.58,-0.46 0.68,-1.31 0.21,-1.89 -0.46,-0.58 -1.3,-0.67 -1.88,-0.21 -3.8,3.02 -5.97,7.52 -5.97,12.35 0,4.84 2.17,9.34 5.97,12.36 0.58,0.46 1.42,0.36 1.88,-0.22 0.47,-0.58 0.37,-1.42 -0.21,-1.89zm22.39 -28.21c-0.58,-0.46 -1.42,-0.37 -1.89,0.22 -0.46,0.58 -0.36,1.42 0.22,1.88 4.85,3.87 7.64,9.65 7.64,15.86 0,6.21 -2.79,11.99 -7.64,15.86 -0.58,0.46 -0.68,1.31 -0.22,1.89 0.47,0.58 1.31,0.67 1.89,0.21 5.5,-4.38 8.66,-10.93 8.66,-17.96 0,-7.03 -3.16,-13.57 -8.66,-17.96z"/>
 </g>
</svg>
