<?xml version="1.0" encoding="UTF-8"?>
<!DOCTYPE svg PUBLIC "-//W3C//DTD SVG 1.1//EN" "http://www.w3.org/Graphics/SVG/1.1/DTD/svg11.dtd">
<!-- Creator: CorelDRAW 2019 (64-Bit) -->
<svg xmlns="http://www.w3.org/2000/svg" xml:space="preserve" width="46px" height="46px" version="1.1" style="shape-rendering:geometricPrecision; text-rendering:geometricPrecision; image-rendering:optimizeQuality; fill-rule:evenodd; clip-rule:evenodd"
viewBox="0 0 46 46"
 xmlns:xlink="http://www.w3.org/1999/xlink"
 xmlns:xodm="http://www.corel.com/coreldraw/odm/2003">
 <defs>
  <style type="text/css">
   <![CDATA[
    .fil0 {fill:#444;fill-rule:nonzero}
   ]]>
  </style>
 </defs>
 <g id="Слой_x0020_1">
  <metadata id="CorelCorpID_0Corel-Layer"/>
  <path class="fil0" d="M41.79 11.83c0.76,0.76 2.07,0.37 2.28,-0.69l1.9 -9.53c0.09,-0.44 -0.05,-0.9 -0.36,-1.22 -0.32,-0.31 -0.78,-0.45 -1.22,-0.36l-9.53 1.9c-1.05,0.21 -1.45,1.52 -0.69,2.28l2.86 2.85 -18.11 18.11 -1.43 -10.01 4.46 -4.45c1.5,0.72 3.35,0.46 4.6,-0.79 1.58,-1.58 1.58,-4.13 0,-5.71 -1.58,-1.58 -4.14,-1.58 -5.72,0 -1.27,1.26 -1.5,3.13 -0.79,4.6l-4.93 4.93c-0.3,0.3 -0.44,0.72 -0.38,1.14l1.81 12.67 -6.09 6.09c-2.61,-1.73 -6.18,-1.44 -8.48,0.86 -2.63,2.63 -2.63,6.9 0,9.53 2.63,2.63 6.9,2.63 9.53,0 2.3,-2.3 2.59,-5.87 0.86,-8.48l9.79 -9.79 10.64 3.55c0.48,0.16 1.02,0.03 1.38,-0.33l2.86 -2.86 0.95 0.96c0.53,0.52 1.38,0.52 1.91,0l3.81 -3.82c0.53,-0.52 0.53,-1.38 0,-1.9l-3.81 -3.81c-0.53,-0.53 -1.38,-0.53 -1.91,0l-3.81 3.81c-0.53,0.52 -0.53,1.38 0,1.9l0.95 0.96 -2.27 2.27 -8.57 -2.86 14.66 -14.66 2.85 2.86zm-19.05 -5.72c0.52,-0.52 1.37,-0.52 1.9,0 0.53,0.53 0.53,1.38 0,1.91 -0.52,0.52 -1.38,0.52 -1.9,0 -0.53,-0.53 -0.53,-1.38 0,-1.91zm16.2 14.3l1.9 1.9 -1.9 1.91 -0.96 -0.96 0 0 0 0 -0.95 -0.95 1.91 -1.9zm-29.35 21.71c-1.57,1.58 -4.14,1.58 -5.71,0 -1.58,-1.57 -1.58,-4.14 0,-5.71 1.57,-1.58 4.14,-1.58 5.71,0 1.58,1.57 1.58,4.14 0,5.71zm33.34 -39.05l-1.01 5.07 -4.06 -4.06 5.07 -1.01zm0 0z"/>
 </g>
</svg>
