<?xml version="1.0" encoding="UTF-8"?>
<!DOCTYPE svg PUBLIC "-//W3C//DTD SVG 1.1//EN" "http://www.w3.org/Graphics/SVG/1.1/DTD/svg11.dtd">
<!-- Creator: CorelDRAW 2019 (64-Bit) -->
<svg xmlns="http://www.w3.org/2000/svg" xml:space="preserve" width="46px" height="46px" version="1.1" style="shape-rendering:geometricPrecision; text-rendering:geometricPrecision; image-rendering:optimizeQuality; fill-rule:evenodd; clip-rule:evenodd"
viewBox="0 0 45.86 45.86"
 xmlns:xlink="http://www.w3.org/1999/xlink"
 xmlns:xodm="http://www.corel.com/coreldraw/odm/2003">
 <defs>
  <style type="text/css">
   <![CDATA[
    .fil0 {fill:none}
    .fil1 {fill:#444;fill-rule:nonzero}
   ]]>
  </style>
 </defs>
 <g id="Слой_x0020_1">
  <metadata id="CorelCorpID_0Corel-Layer"/>
  <rect class="fil0" width="45.86" height="45.86"/>
  <path class="fil1" d="M40.67 25.03l-1.04 -6.48c-0.33,-2.03 -1.73,-4.12 -3.57,-5.31l-0.08 -0.05c-0.15,-0.1 -0.29,-0.19 -0.44,-0.28 0.02,-0.1 0.82,-6.1 0.82,-6.16l0 -5.4c0,-0.75 -0.6,-1.35 -1.35,-1.35l-24.04 0c-0.36,0 -0.71,0.14 -0.96,0.4 -0.25,0.25 -0.39,0.6 -0.39,0.96l0.04 5.49c0,0.05 0.8,5.93 0.81,6 -0.34,0.2 -0.65,0.4 -0.8,0.5 -1.75,1.21 -3.08,3.24 -3.4,5.19l-1.03 6.39c-0.02,0.07 -0.02,0.14 -0.02,0.21l-0.05 11.87c0,1.27 0.49,2.47 1.38,3.37 0.33,0.32 0.69,0.59 1.08,0.81l0 3.32c0,0.75 0.6,1.35 1.34,1.35l4.73 0c0.75,0 1.35,-0.6 1.35,-1.35l0 -2.78 15.54 0 0 2.78c0,0.75 0.6,1.35 1.34,1.35l4.73 0c0.74,0 1.35,-0.6 1.35,-1.35l0 -3.22c1.58,-0.74 2.67,-2.38 2.67,-4.27l0 -11.77c0,-0.08 0,-0.15 -0.01,-0.22l0 0zm-25.59 -1.17l0 6.11c0,0.74 0.6,1.34 1.34,1.34l13.05 0c0.74,0 1.35,-0.6 1.35,-1.34l0 -6.11c0,-0.75 -0.61,-1.35 -1.35,-1.35l-2.92 0 0 -0.45c0,-1.98 -1.62,-3.6 -3.6,-3.6 -1.99,0 -3.61,1.62 -3.61,3.6l0 0.45 -2.92 0c-0.74,0 -1.34,0.6 -1.34,1.35zm6.95 -1.8c0,-0.5 0.41,-0.91 0.92,-0.91 0.5,0 0.91,0.41 0.91,0.91l0 0.45 -1.83 0 0 -0.45zm-4.26 3.14l10.36 0 0 3.42 -10.36 0 0 -3.42zm-7.03 13.43c0.74,0 1.34,-0.6 1.34,-1.35l0 -0.42c0,-0.74 -0.6,-1.34 -1.34,-1.34 -0.75,0 -1.35,0.6 -1.35,1.34l0 0.42c0,0.75 0.6,1.35 1.35,1.35zm24.41 0c0.75,0 1.35,-0.6 1.35,-1.35l0 -0.42c0,-0.74 -0.6,-1.34 -1.35,-1.34 -0.74,0 -1.34,0.6 -1.34,1.34l0 0.42c0,0.75 0.6,1.35 1.34,1.35zm-4.41 -21.12c1.13,0 1.94,0.39 2.25,2.28l0.82 5.12 0 7.35 -21.73 0 0 -7.43 0.82 -5.04c0.3,-1.89 1.12,-2.28 2.25,-2.28l15.59 0zm2.18 -5.25c-0.2,1.46 -1.41,2.56 -2.82,2.56l-14.18 0c-1.41,0 -2.62,-1.1 -2.82,-2.55l-0.62 -4.61 21.06 0 -0.62 4.6zm0.75 -9.57l0 2.28 -21.33 0 -0.02 -2.28 21.35 0zm-25.76 22.57l1.02 -6.29c0.2,-1.24 1.11,-2.61 2.26,-3.4 0.08,-0.06 0.22,-0.14 0.37,-0.24 0.15,0.19 0.3,0.36 0.46,0.53 -0.81,0.67 -1.5,1.76 -1.78,3.5l-0.83 5.15c-0.01,0.07 -0.02,0.14 -0.02,0.21l0 8.88c0,0.75 0.6,1.35 1.35,1.35l24.41 0c0.75,0 1.35,-0.6 1.35,-1.35l0 -8.8c0,-0.07 -0.01,-0.14 -0.02,-0.21l-0.84 -5.22c-0.27,-1.7 -0.92,-2.77 -1.7,-3.45 0.17,-0.17 0.33,-0.35 0.48,-0.54 0.03,0.02 0.06,0.04 0.09,0.06l0.08 0.05c1.2,0.78 2.18,2.21 2.38,3.49l1.02 6.37 0 11.67c0,1.11 -0.86,2.02 -1.92,2.02l-26.28 0c-0.5,0 -0.97,-0.2 -1.33,-0.56 -0.39,-0.39 -0.6,-0.91 -0.6,-1.46l0.05 -11.76zm4.45 17.91l-2.04 0 0 -1.44 2.04 0 0 1.44zm22.96 0l-2.04 0 0 -1.44 2.04 0 0 1.44z"/>
 </g>
</svg>
