<?xml version="1.0" encoding="UTF-8"?>
<!DOCTYPE svg PUBLIC "-//W3C//DTD SVG 1.1//EN" "http://www.w3.org/Graphics/SVG/1.1/DTD/svg11.dtd">
<!-- Creator: CorelDRAW 2019 (64-Bit) -->
<svg xmlns="http://www.w3.org/2000/svg" xml:space="preserve" width="46px" height="46px" version="1.1" style="shape-rendering:geometricPrecision; text-rendering:geometricPrecision; image-rendering:optimizeQuality; fill-rule:evenodd; clip-rule:evenodd"
viewBox="0 0 46 46"
 xmlns:xlink="http://www.w3.org/1999/xlink"
 xmlns:xodm="http://www.corel.com/coreldraw/odm/2003">
 <defs>
  <style type="text/css">
   <![CDATA[
    .fil0 {fill:#444;fill-rule:nonzero}
   ]]>
  </style>
 </defs>
 <g id="Слой_x0020_1">
  <metadata id="CorelCorpID_0Corel-Layer"/>
  <path class="fil0" d="M44.65 31.78c-2.73,0 -5.3,-1.06 -7.23,-2.98 -1.93,-1.91 -2.99,-4.46 -2.99,-7.18 0,-0.74 -0.6,-1.34 -1.35,-1.34 -0.74,0 -1.35,0.6 -1.35,1.34 0,2.72 -1.06,5.27 -2.99,7.18 -1.93,1.92 -4.5,2.98 -7.23,2.98 -0.74,0 -1.35,0.6 -1.35,1.34 0,0.75 0.61,1.35 1.35,1.35 5.64,0 10.22,4.57 10.22,10.18 0,0.75 0.61,1.35 1.35,1.35 0.75,0 1.35,-0.6 1.35,-1.35 0,-5.61 4.59,-10.18 10.22,-10.18 0.75,0 1.35,-0.6 1.35,-1.35 0,-0.74 -0.6,-1.34 -1.35,-1.34zm-24.02 -22.47c2.92,0 5.3,2.36 5.3,5.26 0,0.74 0.6,1.34 1.34,1.34 0.75,0 1.35,-0.6 1.35,-1.34 0,-2.91 2.38,-5.27 5.29,-5.27 0.75,0 1.35,-0.61 1.35,-1.35 0,-0.75 -0.6,-1.35 -1.35,-1.35 -2.91,0 -5.29,-2.36 -5.29,-5.25 0,-0.75 -0.6,-1.35 -1.35,-1.35 -0.74,0 -1.34,0.6 -1.34,1.35 0,2.9 -2.38,5.27 -5.3,5.27 -0.74,0 -1.35,0.6 -1.35,1.35 0,0.74 0.61,1.34 1.35,1.34zm6.65 -3.54c0.58,0.86 1.32,1.6 2.19,2.18 -0.87,0.58 -1.62,1.33 -2.2,2.2 -0.58,-0.86 -1.33,-1.61 -2.19,-2.19 0.86,-0.58 1.61,-1.33 2.2,-2.19zm-8.84 15.47c-3.97,0 -7.2,-3.21 -7.2,-7.15 0,-0.74 -0.6,-1.35 -1.35,-1.35 -0.74,0 -1.34,0.61 -1.34,1.35 0,3.94 -3.23,7.15 -7.2,7.15 -0.75,0 -1.35,0.6 -1.35,1.35 0,0.74 0.6,1.34 1.35,1.34 3.97,0 7.2,3.22 7.2,7.17 0,0.74 0.6,1.35 1.34,1.35 0.75,0 1.35,-0.61 1.35,-1.35 0,-3.95 3.23,-7.17 7.2,-7.17 0.74,0 1.35,-0.6 1.35,-1.34 0,-0.75 -0.61,-1.35 -1.35,-1.35zm-8.55 4.9c-0.86,-1.47 -2.08,-2.69 -3.55,-3.55 1.47,-0.86 2.69,-2.08 3.55,-3.54 0.86,1.46 2.09,2.68 3.56,3.54 -1.47,0.86 -2.7,2.08 -3.56,3.55zm23.19 12.79c-1.25,-2.5 -3.3,-4.55 -5.8,-5.8 1.23,-0.61 2.36,-1.42 3.36,-2.41 1.01,-1 1.83,-2.13 2.44,-3.36 0.62,1.23 1.44,2.36 2.44,3.36 1,0.99 2.14,1.8 3.37,2.41 -2.51,1.25 -4.56,3.3 -5.81,5.8z"/>
 </g>
</svg>
